<mxfile host="app.diagrams.net" modified="2021-08-27T16:13:34.098Z" agent="5.0 (Windows NT 10.0; Win64; x64) AppleWebKit/537.36 (KHTML, like Gecko) Chrome/92.0.4515.159 Safari/537.36" etag="GDpnc9o8pj0zW44_3ckd" version="15.0.2" type="github">
  <diagram id="8EFuCePgdFfzcMcO1Cze" name="Page-1">
    <mxGraphModel dx="1221" dy="613" grid="1" gridSize="10" guides="1" tooltips="1" connect="1" arrows="1" fold="1" page="1" pageScale="1" pageWidth="827" pageHeight="1169" math="0" shadow="0">
      <root>
        <mxCell id="0" />
        <mxCell id="1" parent="0" />
        <mxCell id="3e9EwzFwx39Q3SCBlUT0-57" value="" style="rounded=0;whiteSpace=wrap;html=1;strokeColor=#000000;fillColor=#CCCCCC;" vertex="1" parent="1">
          <mxGeometry x="150" y="20" width="520" height="60" as="geometry" />
        </mxCell>
        <mxCell id="3e9EwzFwx39Q3SCBlUT0-55" value="" style="whiteSpace=wrap;html=1;aspect=fixed;strokeColor=#d79b00;fillColor=#ffe6cc;" vertex="1" parent="1">
          <mxGeometry x="150" y="80" width="520" height="520" as="geometry" />
        </mxCell>
        <mxCell id="3e9EwzFwx39Q3SCBlUT0-1" value="&lt;b&gt;&lt;font style=&quot;font-size: 14px&quot;&gt;USER&lt;/font&gt;&lt;/b&gt;" style="text;html=1;align=center;verticalAlign=middle;resizable=0;points=[];autosize=1;strokeColor=none;" vertex="1" parent="1">
          <mxGeometry x="270" y="40" width="50" height="20" as="geometry" />
        </mxCell>
        <mxCell id="3e9EwzFwx39Q3SCBlUT0-2" value="&lt;b&gt;&lt;font style=&quot;font-size: 14px&quot;&gt;SYSTEM&lt;/font&gt;&lt;/b&gt;" style="text;html=1;align=center;verticalAlign=middle;resizable=0;points=[];autosize=1;strokeColor=none;" vertex="1" parent="1">
          <mxGeometry x="530" y="40" width="70" height="20" as="geometry" />
        </mxCell>
        <mxCell id="3e9EwzFwx39Q3SCBlUT0-3" value="" style="endArrow=classic;html=1;" edge="1" parent="1">
          <mxGeometry width="50" height="50" relative="1" as="geometry">
            <mxPoint x="220.57999999999998" y="80" as="sourcePoint" />
            <mxPoint x="220.57999999999998" y="110" as="targetPoint" />
          </mxGeometry>
        </mxCell>
        <mxCell id="3e9EwzFwx39Q3SCBlUT0-4" value="Can Request for Urgent Trip" style="ellipse;whiteSpace=wrap;html=1;" vertex="1" parent="1">
          <mxGeometry x="161" y="110" width="120" height="40" as="geometry" />
        </mxCell>
        <mxCell id="3e9EwzFwx39Q3SCBlUT0-5" value="" style="endArrow=classic;html=1;entryX=0;entryY=0.5;entryDx=0;entryDy=0;" edge="1" parent="1" target="3e9EwzFwx39Q3SCBlUT0-6">
          <mxGeometry width="50" height="50" relative="1" as="geometry">
            <mxPoint x="280" y="130" as="sourcePoint" />
            <mxPoint x="400" y="130" as="targetPoint" />
          </mxGeometry>
        </mxCell>
        <mxCell id="3e9EwzFwx39Q3SCBlUT0-6" value="Show Option Need Urgent Trip" style="ellipse;whiteSpace=wrap;html=1;" vertex="1" parent="1">
          <mxGeometry x="520" y="110" width="120" height="40" as="geometry" />
        </mxCell>
        <mxCell id="3e9EwzFwx39Q3SCBlUT0-7" value="" style="endArrow=classic;html=1;exitX=0.5;exitY=1;exitDx=0;exitDy=0;entryX=1;entryY=0.5;entryDx=0;entryDy=0;" edge="1" parent="1" source="3e9EwzFwx39Q3SCBlUT0-6" target="3e9EwzFwx39Q3SCBlUT0-8">
          <mxGeometry width="50" height="50" relative="1" as="geometry">
            <mxPoint x="390" y="290" as="sourcePoint" />
            <mxPoint x="480" y="200" as="targetPoint" />
            <Array as="points">
              <mxPoint x="580" y="200" />
            </Array>
          </mxGeometry>
        </mxCell>
        <mxCell id="3e9EwzFwx39Q3SCBlUT0-8" value="Click On That" style="ellipse;whiteSpace=wrap;html=1;" vertex="1" parent="1">
          <mxGeometry x="350" y="180" width="80" height="40" as="geometry" />
        </mxCell>
        <mxCell id="3e9EwzFwx39Q3SCBlUT0-9" value="" style="endArrow=classic;html=1;exitX=0.5;exitY=1;exitDx=0;exitDy=0;exitPerimeter=0;" edge="1" parent="1" source="3e9EwzFwx39Q3SCBlUT0-8">
          <mxGeometry width="50" height="50" relative="1" as="geometry">
            <mxPoint x="270" y="230" as="sourcePoint" />
            <mxPoint x="520" y="240" as="targetPoint" />
            <Array as="points">
              <mxPoint x="390" y="240" />
            </Array>
          </mxGeometry>
        </mxCell>
        <mxCell id="3e9EwzFwx39Q3SCBlUT0-10" value="Show Enter Info" style="ellipse;whiteSpace=wrap;html=1;" vertex="1" parent="1">
          <mxGeometry x="520" y="220" width="90" height="40" as="geometry" />
        </mxCell>
        <mxCell id="3e9EwzFwx39Q3SCBlUT0-11" value="" style="endArrow=classic;html=1;exitX=0.5;exitY=1;exitDx=0;exitDy=0;entryX=1;entryY=0.5;entryDx=0;entryDy=0;" edge="1" parent="1" source="3e9EwzFwx39Q3SCBlUT0-10" target="3e9EwzFwx39Q3SCBlUT0-12">
          <mxGeometry width="50" height="50" relative="1" as="geometry">
            <mxPoint x="390" y="290" as="sourcePoint" />
            <mxPoint x="480" y="280" as="targetPoint" />
            <Array as="points">
              <mxPoint x="565" y="280" />
            </Array>
          </mxGeometry>
        </mxCell>
        <mxCell id="3e9EwzFwx39Q3SCBlUT0-12" value="Insert Info" style="ellipse;whiteSpace=wrap;html=1;" vertex="1" parent="1">
          <mxGeometry x="360" y="260" width="80" height="40" as="geometry" />
        </mxCell>
        <mxCell id="3e9EwzFwx39Q3SCBlUT0-13" value="" style="endArrow=classic;html=1;exitX=0;exitY=0.5;exitDx=0;exitDy=0;" edge="1" parent="1" source="3e9EwzFwx39Q3SCBlUT0-12">
          <mxGeometry width="50" height="50" relative="1" as="geometry">
            <mxPoint x="390" y="290" as="sourcePoint" />
            <mxPoint x="340" y="280" as="targetPoint" />
          </mxGeometry>
        </mxCell>
        <mxCell id="3e9EwzFwx39Q3SCBlUT0-14" value="" style="shape=line;html=1;strokeWidth=6;rotation=-90;" vertex="1" parent="1">
          <mxGeometry x="307.5" y="262.5" width="65" height="10" as="geometry" />
        </mxCell>
        <mxCell id="3e9EwzFwx39Q3SCBlUT0-16" value="" style="endArrow=classic;html=1;" edge="1" parent="1">
          <mxGeometry width="50" height="50" relative="1" as="geometry">
            <mxPoint x="340" y="240" as="sourcePoint" />
            <mxPoint x="320" y="240" as="targetPoint" />
          </mxGeometry>
        </mxCell>
        <mxCell id="3e9EwzFwx39Q3SCBlUT0-17" value="" style="endArrow=classic;html=1;" edge="1" parent="1">
          <mxGeometry width="50" height="50" relative="1" as="geometry">
            <mxPoint x="340" y="289.5" as="sourcePoint" />
            <mxPoint x="320" y="289.5" as="targetPoint" />
          </mxGeometry>
        </mxCell>
        <mxCell id="3e9EwzFwx39Q3SCBlUT0-18" value="Time" style="ellipse;whiteSpace=wrap;html=1;" vertex="1" parent="1">
          <mxGeometry x="270" y="220" width="50" height="40" as="geometry" />
        </mxCell>
        <mxCell id="3e9EwzFwx39Q3SCBlUT0-19" value="Location" style="ellipse;whiteSpace=wrap;html=1;" vertex="1" parent="1">
          <mxGeometry x="270" y="270" width="50" height="40" as="geometry" />
        </mxCell>
        <mxCell id="3e9EwzFwx39Q3SCBlUT0-20" value="" style="shape=line;html=1;strokeWidth=6;rotation=-90;" vertex="1" parent="1">
          <mxGeometry x="216" y="260" width="65" height="10" as="geometry" />
        </mxCell>
        <mxCell id="3e9EwzFwx39Q3SCBlUT0-21" value="" style="endArrow=classic;html=1;" edge="1" parent="1">
          <mxGeometry width="50" height="50" relative="1" as="geometry">
            <mxPoint x="270" y="289.5" as="sourcePoint" />
            <mxPoint x="250" y="289.5" as="targetPoint" />
          </mxGeometry>
        </mxCell>
        <mxCell id="3e9EwzFwx39Q3SCBlUT0-22" value="" style="endArrow=classic;html=1;" edge="1" parent="1">
          <mxGeometry width="50" height="50" relative="1" as="geometry">
            <mxPoint x="270" y="239.5" as="sourcePoint" />
            <mxPoint x="250" y="239.5" as="targetPoint" />
          </mxGeometry>
        </mxCell>
        <mxCell id="3e9EwzFwx39Q3SCBlUT0-23" value="" style="endArrow=classic;html=1;" edge="1" parent="1">
          <mxGeometry width="50" height="50" relative="1" as="geometry">
            <mxPoint x="250" y="267" as="sourcePoint" />
            <mxPoint x="230" y="267" as="targetPoint" />
          </mxGeometry>
        </mxCell>
        <mxCell id="3e9EwzFwx39Q3SCBlUT0-24" value="Enter Submit" style="ellipse;whiteSpace=wrap;html=1;" vertex="1" parent="1">
          <mxGeometry x="182" y="247.5" width="50" height="40" as="geometry" />
        </mxCell>
        <mxCell id="3e9EwzFwx39Q3SCBlUT0-25" value="" style="endArrow=classic;html=1;exitX=0.5;exitY=1;exitDx=0;exitDy=0;entryX=0;entryY=0.5;entryDx=0;entryDy=0;" edge="1" parent="1" source="3e9EwzFwx39Q3SCBlUT0-24" target="3e9EwzFwx39Q3SCBlUT0-27">
          <mxGeometry width="50" height="50" relative="1" as="geometry">
            <mxPoint x="270" y="280" as="sourcePoint" />
            <mxPoint x="520" y="360" as="targetPoint" />
            <Array as="points">
              <mxPoint x="207" y="330" />
            </Array>
          </mxGeometry>
        </mxCell>
        <mxCell id="3e9EwzFwx39Q3SCBlUT0-27" value="Show Notification About Urgent Trip" style="ellipse;whiteSpace=wrap;html=1;" vertex="1" parent="1">
          <mxGeometry x="525" y="310" width="125" height="40" as="geometry" />
        </mxCell>
        <mxCell id="3e9EwzFwx39Q3SCBlUT0-28" value="" style="endArrow=classic;html=1;exitX=0.5;exitY=1;exitDx=0;exitDy=0;" edge="1" parent="1" source="3e9EwzFwx39Q3SCBlUT0-27">
          <mxGeometry width="50" height="50" relative="1" as="geometry">
            <mxPoint x="300" y="380" as="sourcePoint" />
            <mxPoint x="588" y="370" as="targetPoint" />
          </mxGeometry>
        </mxCell>
        <mxCell id="3e9EwzFwx39Q3SCBlUT0-29" value="Request Accepted" style="rhombus;whiteSpace=wrap;html=1;strokeColor=#000000;" vertex="1" parent="1">
          <mxGeometry x="552.25" y="368" width="73.75" height="60" as="geometry" />
        </mxCell>
        <mxCell id="3e9EwzFwx39Q3SCBlUT0-30" value="" style="endArrow=classic;html=1;exitX=0;exitY=0.5;exitDx=0;exitDy=0;" edge="1" parent="1" source="3e9EwzFwx39Q3SCBlUT0-29">
          <mxGeometry width="50" height="50" relative="1" as="geometry">
            <mxPoint x="300" y="370" as="sourcePoint" />
            <mxPoint x="440" y="398" as="targetPoint" />
            <Array as="points">
              <mxPoint x="520" y="398" />
            </Array>
          </mxGeometry>
        </mxCell>
        <mxCell id="3e9EwzFwx39Q3SCBlUT0-31" value="&lt;b&gt;YES&lt;/b&gt;" style="text;html=1;align=center;verticalAlign=middle;resizable=0;points=[];autosize=1;strokeColor=none;" vertex="1" parent="1">
          <mxGeometry x="520" y="380" width="40" height="20" as="geometry" />
        </mxCell>
        <mxCell id="3e9EwzFwx39Q3SCBlUT0-36" value="See Driver Name" style="ellipse;whiteSpace=wrap;html=1;" vertex="1" parent="1">
          <mxGeometry x="340" y="350" width="80" height="40" as="geometry" />
        </mxCell>
        <mxCell id="3e9EwzFwx39Q3SCBlUT0-37" value="See Transport No" style="ellipse;whiteSpace=wrap;html=1;" vertex="1" parent="1">
          <mxGeometry x="340" y="393" width="80" height="48" as="geometry" />
        </mxCell>
        <mxCell id="3e9EwzFwx39Q3SCBlUT0-38" value="" style="shape=line;html=1;strokeWidth=6;rotation=-90;" vertex="1" parent="1">
          <mxGeometry x="407.5" y="390.5" width="60" height="10" as="geometry" />
        </mxCell>
        <mxCell id="3e9EwzFwx39Q3SCBlUT0-39" value="" style="endArrow=classic;html=1;exitX=1;exitY=0.5;exitDx=0;exitDy=0;exitPerimeter=0;" edge="1" parent="1">
          <mxGeometry width="50" height="50" relative="1" as="geometry">
            <mxPoint x="438.5" y="368.5" as="sourcePoint" />
            <mxPoint x="421" y="369" as="targetPoint" />
          </mxGeometry>
        </mxCell>
        <mxCell id="3e9EwzFwx39Q3SCBlUT0-40" value="" style="endArrow=classic;html=1;exitX=1;exitY=0.5;exitDx=0;exitDy=0;exitPerimeter=0;" edge="1" parent="1">
          <mxGeometry width="50" height="50" relative="1" as="geometry">
            <mxPoint x="440" y="416.58" as="sourcePoint" />
            <mxPoint x="422.5" y="417.08" as="targetPoint" />
          </mxGeometry>
        </mxCell>
        <mxCell id="3e9EwzFwx39Q3SCBlUT0-43" value="" style="endArrow=classic;html=1;exitX=0.5;exitY=1;exitDx=0;exitDy=0;" edge="1" parent="1" source="3e9EwzFwx39Q3SCBlUT0-29">
          <mxGeometry width="50" height="50" relative="1" as="geometry">
            <mxPoint x="300" y="360" as="sourcePoint" />
            <mxPoint x="440" y="480" as="targetPoint" />
            <Array as="points">
              <mxPoint x="589" y="480" />
            </Array>
          </mxGeometry>
        </mxCell>
        <mxCell id="3e9EwzFwx39Q3SCBlUT0-44" value="&lt;b&gt;NO&lt;/b&gt;" style="text;html=1;align=center;verticalAlign=middle;resizable=0;points=[];autosize=1;strokeColor=none;" vertex="1" parent="1">
          <mxGeometry x="585" y="450" width="30" height="20" as="geometry" />
        </mxCell>
        <mxCell id="3e9EwzFwx39Q3SCBlUT0-45" value="See Message Sorry for Inconvenience" style="ellipse;whiteSpace=wrap;html=1;" vertex="1" parent="1">
          <mxGeometry x="320" y="451" width="120" height="58" as="geometry" />
        </mxCell>
        <mxCell id="3e9EwzFwx39Q3SCBlUT0-46" value="" style="shape=line;html=1;strokeWidth=6;rotation=0;" vertex="1" parent="1">
          <mxGeometry x="240" y="520" width="120" height="10" as="geometry" />
        </mxCell>
        <mxCell id="3e9EwzFwx39Q3SCBlUT0-47" value="" style="endArrow=classic;html=1;exitX=1;exitY=0.5;exitDx=0;exitDy=0;exitPerimeter=0;" edge="1" parent="1">
          <mxGeometry width="50" height="50" relative="1" as="geometry">
            <mxPoint x="340" y="369.58" as="sourcePoint" />
            <mxPoint x="322.5" y="370.08" as="targetPoint" />
          </mxGeometry>
        </mxCell>
        <mxCell id="3e9EwzFwx39Q3SCBlUT0-48" value="" style="endArrow=classic;html=1;exitX=1;exitY=0.5;exitDx=0;exitDy=0;exitPerimeter=0;" edge="1" parent="1">
          <mxGeometry width="50" height="50" relative="1" as="geometry">
            <mxPoint x="340" y="416.58" as="sourcePoint" />
            <mxPoint x="322.5" y="417.08" as="targetPoint" />
          </mxGeometry>
        </mxCell>
        <mxCell id="3e9EwzFwx39Q3SCBlUT0-49" value="" style="shape=line;html=1;strokeWidth=6;rotation=-90;" vertex="1" parent="1">
          <mxGeometry x="290" y="390" width="60" height="10" as="geometry" />
        </mxCell>
        <mxCell id="3e9EwzFwx39Q3SCBlUT0-50" value="" style="endArrow=classic;html=1;exitX=0.589;exitY=0.4;exitDx=0;exitDy=0;exitPerimeter=0;" edge="1" parent="1" source="3e9EwzFwx39Q3SCBlUT0-49">
          <mxGeometry width="50" height="50" relative="1" as="geometry">
            <mxPoint x="300" y="520" as="sourcePoint" />
            <mxPoint x="280" y="520" as="targetPoint" />
            <Array as="points">
              <mxPoint x="280" y="390" />
            </Array>
          </mxGeometry>
        </mxCell>
        <mxCell id="3e9EwzFwx39Q3SCBlUT0-51" value="" style="endArrow=classic;html=1;exitX=0;exitY=0.5;exitDx=0;exitDy=0;" edge="1" parent="1" source="3e9EwzFwx39Q3SCBlUT0-45">
          <mxGeometry width="50" height="50" relative="1" as="geometry">
            <mxPoint x="300" y="520" as="sourcePoint" />
            <mxPoint x="290" y="520" as="targetPoint" />
            <Array as="points">
              <mxPoint x="290" y="480" />
            </Array>
          </mxGeometry>
        </mxCell>
        <mxCell id="3e9EwzFwx39Q3SCBlUT0-52" value="" style="endArrow=classic;html=1;exitX=0.436;exitY=0.767;exitDx=0;exitDy=0;exitPerimeter=0;" edge="1" parent="1" source="3e9EwzFwx39Q3SCBlUT0-46">
          <mxGeometry width="50" height="50" relative="1" as="geometry">
            <mxPoint x="300" y="600" as="sourcePoint" />
            <mxPoint x="292" y="550" as="targetPoint" />
          </mxGeometry>
        </mxCell>
        <mxCell id="3e9EwzFwx39Q3SCBlUT0-53" value="" style="ellipse;html=1;shape=endState;fillColor=#000000;strokeColor=#ff0000;" vertex="1" parent="1">
          <mxGeometry x="277.5" y="550" width="30" height="30" as="geometry" />
        </mxCell>
        <mxCell id="3e9EwzFwx39Q3SCBlUT0-54" value="" style="endArrow=none;html=1;" edge="1" parent="1">
          <mxGeometry width="50" height="50" relative="1" as="geometry">
            <mxPoint x="480" y="600" as="sourcePoint" />
            <mxPoint x="480" y="20" as="targetPoint" />
          </mxGeometry>
        </mxCell>
      </root>
    </mxGraphModel>
  </diagram>
</mxfile>
